<svg width="190" height="229" viewBox="0 0 190 229" fill="none" xmlns="http://www.w3.org/2000/svg">
<path d="M134.665 210.014H48.0005C45.9423 210.011 43.9691 208.938 42.5139 207.031C41.0588 205.125 40.2407 202.539 40.2391 199.843V156.207C40.0597 156.475 39.8719 156.739 39.6785 156.996V199.843C39.6805 202.734 40.5579 205.506 42.118 207.55C43.6782 209.594 45.7937 210.744 48.0005 210.748H134.909C134.825 210.506 134.743 210.26 134.665 210.014ZM40.2391 48.7216C40.2407 46.0255 41.0588 43.4405 42.5139 41.5337C43.9691 39.627 45.9423 38.5544 48.0005 38.5513H76.8764C76.8232 38.3053 76.7727 38.063 76.7251 37.817H48.0005C45.7937 37.8206 43.6782 38.9708 42.118 41.0151C40.5579 43.0594 39.6805 45.8309 39.6785 48.7216V115.618C39.8719 115.875 40.057 116.139 40.2391 116.407V48.7216ZM156.606 57.2984L138.499 38.5109C138.067 38.062 137.532 37.8175 136.98 37.817H120.866C120.821 38.063 120.771 38.309 120.717 38.5513H136.98C137.405 38.5527 137.817 38.7401 138.152 39.0837L156.259 57.8748C156.431 58.0524 156.569 58.2789 156.665 58.5371C156.76 58.7954 156.809 59.0787 156.808 59.3655V168.716C156.996 168.723 157.184 168.742 157.369 168.76V59.3655C157.37 58.9677 157.302 58.5749 157.17 58.2167C157.037 57.8586 156.845 57.5445 156.606 57.2984Z" fill="#3F3D56"/>
<path d="M156.367 58.2682H141.757C141.228 58.2682 140.706 58.132 140.218 57.8672C139.73 57.6025 139.286 57.2145 138.913 56.7253C138.539 56.2361 138.243 55.6554 138.041 55.0162C137.839 54.3771 137.735 53.6921 137.735 53.0003V38.865C137.735 38.8031 137.748 38.7425 137.773 38.6901C137.798 38.6376 137.834 38.5955 137.877 38.5686C137.919 38.5417 137.967 38.531 138.014 38.5377C138.061 38.5445 138.105 38.5685 138.142 38.6069L156.523 57.6809C156.564 57.7234 156.594 57.7814 156.608 57.8471C156.623 57.9127 156.622 57.9827 156.605 58.0472C156.587 58.1118 156.555 58.1678 156.513 58.2074C156.47 58.247 156.419 58.2682 156.367 58.2682Z" fill="#E6E6E6"/>
<path d="M156.367 58.6355H141.757C140.616 58.6338 139.523 58.0396 138.716 56.9832C137.91 55.9267 137.456 54.4944 137.455 53.0004V38.8652C137.455 38.7343 137.483 38.606 137.536 38.4952C137.589 38.3843 137.665 38.2952 137.755 38.2382C137.845 38.1812 137.945 38.1586 138.044 38.1729C138.144 38.1872 138.238 38.2379 138.316 38.3191L156.697 57.3933C156.784 57.4831 156.847 57.6059 156.878 57.7448C156.908 57.8836 156.906 58.0316 156.869 58.1682C156.833 58.3047 156.765 58.4231 156.675 58.5068C156.585 58.5906 156.478 58.6356 156.367 58.6355V58.6355ZM138.015 38.9435V53.0004C138.016 54.2997 138.411 55.5454 139.112 56.4642C139.814 57.383 140.765 57.8998 141.757 57.9012H156.284L138.015 38.9435Z" fill="#3F3D56"/>
<path d="M127.365 82.633H84.383C83.8497 82.633 83.3382 82.3555 82.9611 81.8615C82.584 81.3675 82.3721 80.6976 82.3721 79.999C82.3721 79.3004 82.584 78.6304 82.9611 78.1365C83.3382 77.6425 83.8497 77.365 84.383 77.365H127.365C127.898 77.365 128.409 77.6425 128.786 78.1365C129.164 78.6304 129.375 79.3004 129.375 79.999C129.375 80.6976 129.164 81.3675 128.786 81.8615C128.409 82.3555 127.898 82.633 127.365 82.633Z" fill="#CCCCCC"/>
<path d="M135.659 91.5224H84.383C83.8497 91.5224 83.3382 91.2449 82.9611 90.7509C82.584 90.2569 82.3721 89.587 82.3721 88.8884C82.3721 88.1898 82.584 87.5198 82.9611 87.0259C83.3382 86.5319 83.8497 86.2544 84.383 86.2544H135.659C136.193 86.2544 136.704 86.5319 137.081 87.0259C137.458 87.5198 137.67 88.1898 137.67 88.8884C137.67 89.587 137.458 90.2569 137.081 90.7509C136.704 91.2449 136.193 91.5224 135.659 91.5224H135.659Z" fill="#CCCCCC"/>
<path d="M127.365 122.472H84.383C83.8497 122.472 83.3382 122.194 82.9611 121.7C82.584 121.206 82.3721 120.536 82.3721 119.838C82.3721 119.139 82.584 118.469 82.9611 117.975C83.3382 117.481 83.8497 117.204 84.383 117.204H127.365C127.898 117.204 128.409 117.481 128.786 117.975C129.164 118.469 129.375 119.139 129.375 119.838C129.375 120.536 129.164 121.206 128.786 121.7C128.409 122.194 127.898 122.472 127.365 122.472Z" fill="#CCCCCC"/>
<path d="M135.659 131.361H84.383C83.8497 131.361 83.3382 131.084 82.9611 130.59C82.584 130.096 82.3721 129.426 82.3721 128.727C82.3721 128.029 82.584 127.359 82.9611 126.865C83.3382 126.371 83.8497 126.094 84.383 126.094H135.659C136.193 126.094 136.704 126.371 137.081 126.865C137.458 127.359 137.67 128.029 137.67 128.727C137.67 129.426 137.458 130.096 137.081 130.59C136.704 131.084 136.193 131.361 135.659 131.361H135.659Z" fill="#CCCCCC"/>
<path d="M127.365 162.311H84.383C84.1189 162.311 83.8574 162.242 83.6135 162.11C83.3695 161.978 83.1478 161.784 82.9611 161.539C82.7744 161.295 82.6262 161.004 82.5252 160.685C82.4241 160.365 82.3721 160.022 82.3721 159.677C82.3721 159.331 82.4241 158.988 82.5252 158.669C82.6262 158.349 82.7744 158.059 82.9611 157.814C83.1478 157.569 83.3695 157.375 83.6135 157.243C83.8574 157.111 84.1189 157.043 84.383 157.043H127.365C127.898 157.043 128.409 157.32 128.786 157.814C129.164 158.308 129.375 158.978 129.375 159.677C129.375 160.375 129.164 161.045 128.786 161.539C128.409 162.033 127.898 162.311 127.365 162.311V162.311Z" fill="#CCCCCC"/>
<path d="M135.659 171.201H84.383C84.1189 171.201 83.8574 171.132 83.6135 171C83.3695 170.868 83.1478 170.674 82.9611 170.429C82.7744 170.185 82.6262 169.894 82.5252 169.575C82.4241 169.255 82.3721 168.913 82.3721 168.567C82.3721 168.221 82.4241 167.878 82.5252 167.559C82.6262 167.239 82.7744 166.949 82.9611 166.704C83.1478 166.459 83.3695 166.265 83.6135 166.133C83.8574 166.001 84.1189 165.933 84.383 165.933H135.659C135.923 165.933 136.185 166.001 136.429 166.133C136.673 166.265 136.894 166.459 137.081 166.704C137.268 166.949 137.416 167.239 137.517 167.559C137.618 167.878 137.67 168.221 137.67 168.567C137.67 168.913 137.618 169.255 137.517 169.575C137.416 169.894 137.268 170.185 137.081 170.429C136.894 170.674 136.673 170.868 136.429 171C136.185 171.132 135.923 171.201 135.659 171.201H135.659Z" fill="#CCCCCC"/>
<path d="M66.4844 93.7533C70.4096 93.7533 73.5916 89.5852 73.5916 84.4436C73.5916 79.302 70.4096 75.1339 66.4844 75.1339C62.5592 75.1339 59.3772 79.302 59.3772 84.4436C59.3772 89.5852 62.5592 93.7533 66.4844 93.7533Z" fill="#84C7C7"/>
<path d="M65.7801 87.9951C65.6202 87.9955 65.4646 87.9277 65.3366 87.8021L65.3287 87.7943L63.6584 86.1206C63.5809 86.043 63.5158 85.9462 63.4669 85.8356C63.418 85.725 63.3862 85.6028 63.3733 85.4762C63.3605 85.3495 63.3668 85.2207 63.392 85.0972C63.4172 84.9737 63.4607 84.858 63.52 84.7565C63.5794 84.6551 63.6535 84.57 63.738 84.5061C63.8225 84.4422 63.9157 84.4007 64.0125 84.3841C64.1092 84.3674 64.2075 84.3759 64.3018 84.4091C64.396 84.4423 64.4843 84.4995 64.5616 84.5774L65.6435 85.6641L68.2 81.2953C68.2593 81.194 68.3332 81.109 68.4176 81.0451C68.502 80.9812 68.5951 80.9398 68.6917 80.923C68.7883 80.9063 68.8865 80.9147 68.9806 80.9477C69.0747 80.9807 69.163 81.0376 69.2403 81.1153L69.2405 81.1155L69.2246 81.1443L69.2409 81.1155C69.3969 81.2725 69.499 81.5042 69.5247 81.7597C69.5505 82.0153 69.4978 82.2737 69.3782 82.4784L66.3711 87.6148C66.3016 87.7332 66.2121 87.8289 66.1097 87.8947C66.0073 87.9604 65.8948 87.9944 65.7807 87.994L65.7801 87.9951Z" fill="white"/>
<path d="M66.4844 133.592C70.4096 133.592 73.5916 129.424 73.5916 124.282C73.5916 119.141 70.4096 114.973 66.4844 114.973C62.5592 114.973 59.3772 119.141 59.3772 124.282C59.3772 129.424 62.5592 133.592 66.4844 133.592Z" fill="#E6E6E6"/>
<path d="M65.7801 127.834C65.6202 127.834 65.4646 127.766 65.3366 127.641L65.3287 127.633L63.6584 125.959C63.5022 125.802 63.3999 125.571 63.3742 125.315C63.3484 125.059 63.4012 124.801 63.521 124.596C63.6407 124.392 63.8177 124.258 64.0128 124.224C64.208 124.19 64.4054 124.259 64.5616 124.416L65.6435 125.503L68.2001 121.134C68.2593 121.033 68.3333 120.948 68.4176 120.884C68.502 120.82 68.5951 120.778 68.6917 120.762C68.7883 120.745 68.8865 120.753 68.9806 120.786C69.0747 120.819 69.163 120.876 69.2403 120.954L69.2405 120.954L69.2247 120.983L69.241 120.954C69.397 121.111 69.499 121.343 69.5247 121.598C69.5505 121.854 69.4978 122.112 69.3782 122.317L66.3711 127.454C66.3016 127.572 66.2121 127.668 66.1097 127.733C66.0074 127.799 65.8948 127.833 65.7808 127.833L65.7801 127.834Z" fill="white"/>
<path d="M66.4844 173.431C70.4096 173.431 73.5916 169.263 73.5916 164.121C73.5916 158.98 70.4096 154.812 66.4844 154.812C62.5592 154.812 59.3772 158.98 59.3772 164.121C59.3772 169.263 62.5592 173.431 66.4844 173.431Z" fill="#E6E6E6"/>
<path d="M65.7801 167.673C65.6202 167.673 65.4646 167.606 65.3366 167.48L65.3287 167.472L63.6584 165.799C63.5809 165.721 63.5158 165.624 63.4669 165.514C63.418 165.403 63.3862 165.281 63.3733 165.154C63.3605 165.027 63.3668 164.899 63.392 164.775C63.4172 164.652 63.4607 164.536 63.52 164.434C63.5794 164.333 63.6535 164.248 63.738 164.184C63.8225 164.12 63.9157 164.079 64.0125 164.062C64.1092 164.045 64.2075 164.054 64.3018 164.087C64.396 164.12 64.4843 164.177 64.5616 164.255L65.6435 165.342L68.2 160.973C68.2593 160.872 68.3332 160.787 68.4176 160.723C68.502 160.659 68.5951 160.618 68.6917 160.601C68.7883 160.584 68.8865 160.593 68.9806 160.626C69.0747 160.659 69.163 160.716 69.2403 160.793L69.2405 160.793L69.2246 160.822L69.2409 160.793C69.3969 160.95 69.499 161.182 69.5247 161.438C69.5505 161.693 69.4978 161.952 69.3782 162.156L66.3711 167.293C66.3016 167.411 66.2121 167.507 66.1097 167.573C66.0073 167.638 65.8948 167.672 65.7807 167.672L65.7801 167.673Z" fill="white"/>
<path d="M166.41 225.553C166.009 225.828 165.601 226.088 165.186 226.333C164.808 226.557 164.425 226.767 164.035 226.963C163.893 227.034 163.748 227.106 163.603 227.177C162.457 227.721 161.281 228.146 160.084 228.448C159.492 228.6 158.892 228.72 158.284 228.807C157.782 228.881 157.275 228.935 156.762 228.966C156.397 228.99 156.033 229 155.665 229C154.21 229.001 152.759 228.823 151.329 228.468C150.956 228.38 150.592 228.275 150.227 228.16C148.462 227.606 146.754 226.78 145.138 225.699C144.993 225.604 144.848 225.503 144.703 225.404C144.488 225.255 144.279 225.099 144.069 224.937C144.17 224.754 144.279 224.574 144.39 224.398C145.601 222.433 147.114 220.824 148.831 219.676C150.548 218.528 152.431 217.867 154.356 217.736C156.281 217.604 158.206 218.006 160.005 218.915C161.804 219.823 163.436 221.218 164.796 223.008C165.268 223.629 165.705 224.292 166.105 224.994C166.211 225.177 166.312 225.364 166.41 225.553Z" fill="#84C7C7"/>
<path d="M156.182 210.666C162.456 210.666 167.542 204.004 167.542 195.786C167.542 187.567 162.456 180.905 156.182 180.905C149.907 180.905 144.821 187.567 144.821 195.786C144.821 204.004 149.907 210.666 156.182 210.666Z" fill="#2F2E41"/>
<path d="M159.203 210.688C163.301 207.754 164.807 201.024 162.567 195.657C160.327 190.29 155.189 188.317 151.092 191.251C146.994 194.185 145.489 200.915 147.728 206.282C149.968 211.649 155.106 213.622 159.203 210.688Z" fill="#A0616A"/>
<path d="M164.032 194.003C162.1 195.747 159.807 196.676 157.46 196.663C158.297 197.424 159.25 197.937 160.253 198.169C157.133 199.045 153.909 199.069 150.781 198.238C150.086 198.092 149.415 197.79 148.798 197.346C148.491 197.121 148.223 196.814 148.012 196.445C147.801 196.075 147.652 195.652 147.575 195.202C147.367 193.647 148.292 192.234 149.253 191.282C150.725 189.846 152.422 188.857 154.222 188.386C156.021 187.915 157.878 187.974 159.658 188.558C160.82 188.952 161.985 189.617 162.74 190.84C163.495 192.062 163.718 193.947 162.999 195.206L164.032 194.003Z" fill="#2F2E41"/>
<path d="M157.369 168.077C157.184 168.059 156.996 168.044 156.808 168.033C156.43 168.007 156.049 167.996 155.665 167.996C151.846 167.996 148.087 169.226 144.717 171.578C141.347 173.93 138.47 177.331 136.34 181.482C134.21 185.633 132.892 190.407 132.502 195.382C132.112 200.358 132.662 205.382 134.104 210.014C134.18 210.26 134.259 210.506 134.343 210.748C136.269 216.464 139.48 221.275 143.547 224.538L143.696 224.652C143.822 224.751 143.945 224.847 144.069 224.935C144.279 225.1 144.489 225.254 144.702 225.405C144.848 225.504 144.994 225.603 145.137 225.699C146.753 226.78 148.462 227.605 150.227 228.158C150.591 228.276 150.956 228.379 151.328 228.467C152.758 228.822 154.21 229 155.665 228.999C156.032 228.999 156.396 228.988 156.763 228.966C157.274 228.937 157.781 228.882 158.283 228.808C158.891 228.72 159.492 228.6 160.085 228.449C161.281 228.146 162.457 227.721 163.603 227.178C163.748 227.105 163.894 227.035 164.034 226.962C164.427 226.767 164.808 226.558 165.186 226.334C165.601 226.088 166.009 225.827 166.411 225.552C170.438 222.788 173.767 218.554 175.994 213.362C176.005 213.334 176.016 213.307 176.028 213.281C177.924 208.804 178.93 203.774 178.951 198.654C178.972 193.534 178.009 188.489 176.15 183.985C174.291 179.481 171.596 175.663 168.314 172.883C165.031 170.103 161.267 168.45 157.369 168.077L157.369 168.077ZM178.032 204.095C177.582 207.175 176.762 210.142 175.602 212.885C175.582 212.933 175.563 212.98 175.543 213.024C173.361 218.14 170.079 222.302 166.106 224.994C165.708 225.265 165.305 225.52 164.897 225.757C164.558 225.956 164.211 226.146 163.86 226.323C163.715 226.396 163.563 226.473 163.415 226.539C162.425 227.013 161.41 227.393 160.379 227.678C159.615 227.892 158.842 228.051 158.064 228.155C157.585 228.225 157.1 228.272 156.609 228.294C156.295 228.313 155.981 228.324 155.665 228.324C154.257 228.324 152.852 228.152 151.469 227.81C150.627 227.608 149.795 227.34 148.977 227.009C147.731 226.506 146.52 225.864 145.358 225.089C145.224 224.997 145.089 224.906 144.957 224.81C144.767 224.678 144.576 224.542 144.391 224.399C144.251 224.296 144.111 224.186 143.973 224.079C143.892 224.017 143.814 223.955 143.732 223.888C139.86 220.753 136.789 216.179 134.909 210.748C134.825 210.506 134.743 210.26 134.665 210.014C133.216 205.481 132.645 200.55 133.002 195.659C133.36 190.767 134.634 186.068 136.712 181.977C138.79 177.886 141.607 174.531 144.914 172.211C148.22 169.89 151.913 168.676 155.665 168.675C156.049 168.675 156.43 168.686 156.808 168.716C156.996 168.723 157.184 168.742 157.369 168.76C160.567 169.077 163.678 170.276 166.499 172.277C169.319 174.278 171.785 177.036 173.736 180.372C175.686 183.707 177.077 187.544 177.818 191.633C178.558 195.721 178.631 199.967 178.032 204.095L178.032 204.095Z" fill="#3F3D56"/>
<path d="M150.429 181.11C150.306 179.426 148.732 178.39 147.5 178.898C146.269 179.407 145.461 181.031 145.216 182.691C145.099 183.391 145.088 184.114 145.184 184.819C145.28 185.524 145.481 186.197 145.776 186.8C146.399 187.973 147.543 188.705 148.609 188.407C149.827 188.067 150.671 186.51 150.912 184.91C151.154 183.31 150.914 181.66 150.675 180.059L150.429 181.11Z" fill="#2F2E41"/>
<path d="M167.758 183.515C167.636 181.832 166.062 180.795 164.83 181.304C163.599 181.812 162.79 183.436 162.546 185.097C162.429 185.796 162.417 186.519 162.514 187.224C162.61 187.929 162.811 188.602 163.106 189.205C163.729 190.378 164.873 191.111 165.939 190.813C167.157 190.473 168.001 188.915 168.242 187.315C168.484 185.715 168.244 184.065 168.005 182.465L167.758 183.515Z" fill="#2F2E41"/>
<path d="M111.215 55.8983C107.611 58.9216 103.435 60.5702 99.1555 60.6594C94.8759 60.7486 90.662 59.2748 86.9859 56.4032C87.6326 54.8264 88.452 53.3821 89.418 52.1162C90.9086 50.1544 92.7226 48.6663 94.7207 47.7662C96.7188 46.8661 98.8479 46.5779 100.944 46.9238C103.041 47.2698 105.049 48.2406 106.814 49.7616C108.579 51.2827 110.055 53.3136 111.127 55.6983C111.156 55.7627 111.187 55.8305 111.215 55.8983Z" fill="#84C7C7"/>
<path d="M98.0891 39.6919C104.405 39.6919 109.525 32.9851 109.525 24.712C109.525 16.4388 104.405 9.73206 98.0891 9.73206C91.7732 9.73206 86.6531 16.4388 86.6531 24.712C86.6531 32.9851 91.7732 39.6919 98.0891 39.6919Z" fill="#2F2E41"/>
<path d="M105.477 35.2778C107.732 29.8749 106.216 23.1007 102.091 20.1472C97.9668 17.1937 92.7952 19.1793 90.5404 24.5823C88.2857 29.9852 89.8016 36.7594 93.9263 39.7129C98.051 42.6664 103.223 40.6808 105.477 35.2778Z" fill="#FFB8B8"/>
<path d="M90.1865 22.9173C92.1315 24.6733 94.4401 25.6078 96.8023 25.5955C95.9596 26.3608 95.0004 26.8778 93.9905 27.1107C97.1313 27.9932 100.377 28.0171 103.525 27.1809C104.225 27.0339 104.9 26.7302 105.521 26.2829C105.831 26.0565 106.1 25.7474 106.313 25.3755C106.525 25.0036 106.675 24.5774 106.753 24.1246C106.963 22.5592 106.031 21.137 105.064 20.1785C103.582 18.7334 101.874 17.7377 100.062 17.2635C98.2507 16.7894 96.3814 16.8486 94.5895 17.4369C93.4195 17.833 92.2474 18.5023 91.4874 19.7332C90.7275 20.964 90.5024 22.8615 91.2264 24.1289L90.1865 22.9173Z" fill="#2F2E41"/>
<path d="M98.79 0C92.6165 0.00899123 86.6978 3.22511 82.3322 8.94287C77.9666 14.6606 75.5107 22.4131 75.5031 30.4997C75.504 32.9666 75.7356 35.424 76.1926 37.8172C76.2402 38.0632 76.2878 38.3091 76.3383 38.5515C77.6815 45.0022 80.6073 50.6951 84.6646 54.7524C88.7219 58.8097 93.6855 61.0062 98.79 61.0031C103.895 61.0029 108.86 58.8056 112.919 54.7491C116.978 50.6926 119.907 45.0016 121.256 38.5515C121.306 38.3055 121.354 38.0632 121.398 37.8172C122.243 33.3242 122.296 28.6385 121.555 24.1144C120.813 19.5903 119.296 15.3463 117.118 11.7033C114.94 8.06024 112.159 5.11356 108.983 3.08604C105.808 1.05852 102.322 0.00323706 98.79 0V0ZM120.866 37.8172C120.821 38.0632 120.771 38.3091 120.717 38.5515C119.772 42.9633 118.063 47.0306 115.724 50.4378C113.384 53.8451 110.477 56.5008 107.228 58.1991C103.979 59.8974 100.475 60.5925 96.9874 60.2307C93.5 59.8688 90.1231 58.4597 87.1185 56.1126C82.1249 52.1764 78.4628 45.8973 76.8765 38.5515C76.8232 38.3055 76.7727 38.0632 76.7251 37.8172C76.258 35.4261 76.0217 32.9678 76.0216 30.4997C76.0253 26.275 76.7141 22.0995 78.0425 18.2498C79.371 14.4001 81.3087 10.964 83.7273 8.16918C86.146 5.37436 88.9903 3.28456 92.072 2.03821C95.1537 0.791866 98.4024 0.417412 101.603 0.939652C104.803 1.46189 107.883 2.8689 110.637 5.0675C113.391 7.2661 115.757 10.2061 117.578 13.6928C119.399 17.1794 120.634 21.1332 121.201 25.2922C121.768 29.4511 121.654 33.7204 120.866 37.8172H120.866Z" fill="#3F3D56"/>
<path d="M35.7124 161.688C32.1082 164.712 27.9324 166.361 23.653 166.45C19.3736 166.54 15.1598 165.066 11.4837 162.195C11.5229 162.096 11.5649 161.997 11.6098 161.901C12.7889 159.117 14.5074 156.789 16.592 155.152C18.6766 153.514 21.0538 152.625 23.4842 152.574C25.9146 152.523 28.3123 153.312 30.4359 154.861C32.5595 156.41 34.334 158.665 35.5806 161.398C35.5974 161.428 35.6114 161.461 35.6255 161.49C35.6536 161.553 35.6843 161.622 35.7124 161.688Z" fill="#84C7C7"/>
<path d="M34.0222 130.502C34.0222 133.465 33.3514 136.361 32.0948 138.824C30.8382 141.288 29.0522 143.208 26.9625 144.342C24.8729 145.475 22.5735 145.772 20.3551 145.194C18.1367 144.616 16.0991 143.189 14.4997 141.094C12.9004 138.999 11.8112 136.33 11.3699 133.424C10.9287 130.519 11.1552 127.507 12.0207 124.769C12.8863 122.032 14.3521 119.693 16.2327 118.047C18.1133 116.401 20.3244 115.522 22.5862 115.522C24.09 115.513 25.5803 115.894 26.9711 116.643C28.3618 117.393 29.6253 118.496 30.6887 119.889C31.7521 121.281 32.5942 122.937 33.1663 124.758C33.7385 126.58 34.0294 128.532 34.0222 130.502V130.502Z" fill="#2F2E41"/>
<path d="M31.5471 139.809C31.4162 140.241 31.2655 140.661 31.0959 141.069C30.013 143.663 28.1877 145.588 26.0216 146.42C23.8554 147.252 21.5257 146.922 19.5449 145.504C18.5633 144.802 17.6969 143.854 16.9952 142.714C16.2935 141.573 15.7702 140.263 15.4552 138.857C15.1403 137.452 15.0399 135.979 15.1597 134.523C15.2796 133.066 15.6173 131.655 16.1537 130.37C16.6901 129.085 17.4145 127.95 18.2857 127.032C19.1568 126.114 20.1576 125.429 21.2308 125.017C22.304 124.606 23.4286 124.475 24.5403 124.633C25.652 124.791 26.729 125.235 27.7099 125.938C29.5294 127.242 30.9233 129.37 31.6298 131.924C32.3363 134.478 32.3069 137.282 31.5471 139.809V139.809Z" fill="#A0616A"/>
<path d="M40.2418 115.412C40.0624 115.155 39.8746 114.902 39.6812 114.656C36.5667 110.613 32.6435 107.804 28.3636 106.555C24.0837 105.305 19.6214 105.664 15.4907 107.592C11.36 109.519 7.72903 112.936 5.01616 117.448C2.30329 121.961 0.618902 127.386 0.157069 133.098C-0.304764 138.809 0.474746 144.576 2.40579 149.733C4.33684 154.89 7.34084 159.227 11.0717 162.245C14.8025 165.263 19.1084 166.839 23.4932 166.791C27.878 166.743 32.1632 165.074 35.8552 161.975C37.2341 160.816 38.5164 159.471 39.6812 157.962C39.8719 157.716 40.0597 157.466 40.2418 157.209C44.3088 151.555 46.5737 144.079 46.5737 136.311C46.5737 128.542 44.3088 121.067 40.2418 115.412V115.412ZM39.6812 156.996C38.4503 158.667 37.075 160.144 35.5833 161.399C35.5806 161.402 35.5777 161.402 35.5749 161.406C32.0109 164.395 27.882 166.025 23.6507 166.113C19.4194 166.201 15.2529 164.744 11.6181 161.905C11.6153 161.905 11.6153 161.902 11.6125 161.902C8.82474 159.724 6.42471 156.791 4.57334 153.299C2.72197 149.807 1.46207 145.836 0.878147 141.654C0.294223 137.472 0.39977 133.174 1.18771 129.05C1.97566 124.925 3.42777 121.069 5.44668 117.74C7.46558 114.411 10.0046 111.686 12.8934 109.748C15.7822 107.809 18.9541 106.703 22.1962 106.502C25.4384 106.301 28.6759 107.01 31.6915 108.582C34.7072 110.155 37.4313 112.553 39.6812 115.618C39.8746 115.875 40.0597 116.139 40.2418 116.407C43.985 121.876 46.0551 128.962 46.0551 136.307C46.0551 143.652 43.985 150.738 40.2418 156.207C40.0624 156.475 39.8746 156.739 39.6812 156.996Z" fill="#3F3D56"/>
<path d="M31.8548 118.062C31.2915 116.809 30.4748 115.785 29.495 115.102C28.5151 114.419 27.4103 114.105 26.3025 114.192C25.1396 114.306 24.0333 114.868 22.9469 115.423L17.4238 118.245C15.9946 118.975 14.4294 119.87 13.8092 121.708C13.2336 123.413 13.6631 125.384 14.0978 127.159L16.1642 135.602C16.4473 133.705 16.735 131.79 17.3352 130.025C17.9354 128.26 18.8848 126.632 20.1973 125.75C21.6319 124.786 23.3228 124.806 24.9334 124.908C27.2143 125.052 29.6943 125.432 31.3149 127.539C32.1752 128.736 32.7584 130.228 32.9968 131.842C33.2314 133.447 33.3495 135.078 33.3495 136.712C34.2849 134.606 35.0728 132.394 35.7036 130.102C36.2225 128.395 36.5182 126.586 36.5783 124.75C36.5906 122.917 36.1944 121.026 35.2613 119.66C34.3282 118.294 32.8079 117.557 31.4708 118.098" fill="#2F2E41"/>
<path d="M14.4387 77.7795L13.8782 77.7709C13.8848 77.0366 13.901 76.2914 13.9262 75.5562L14.4862 75.5891C14.4613 76.3163 14.4453 77.0533 14.4387 77.7795Z" fill="#E6E6E6"/>
<path d="M14.7324 71.396L14.1751 71.3164C14.2922 69.9128 14.4455 68.4973 14.6308 67.1091L15.183 67.2357C14.9997 68.6083 14.8482 70.008 14.7324 71.396ZM15.8374 63.1219L15.2926 62.949C15.5463 61.5778 15.8376 60.1999 16.1585 58.8533L16.6937 59.072C16.3763 60.4035 16.0882 61.7662 15.8374 63.1219ZM17.7497 55.0989L17.2266 54.835C17.6137 53.5177 18.0391 52.1995 18.4908 50.917L18.9998 51.2246C18.5531 52.4928 18.1326 53.7963 17.7497 55.0989V55.0989ZM20.4383 47.4646L19.9455 47.1147C20.4588 45.8748 21.0101 44.6398 21.5841 43.4438L22.0586 43.8347C21.491 45.0173 20.9459 46.2386 20.4383 47.4646L20.4383 47.4646ZM23.8534 40.349L23.399 39.9191C24.0297 38.7751 24.697 37.643 25.3824 36.5543L25.8149 37.0215C25.1371 38.0982 24.4772 39.2176 23.8534 40.349V40.349ZM27.9346 33.8655L27.5258 33.3632C28.2623 32.3348 29.0342 31.3239 29.8202 30.3581L30.2037 30.8938C29.4264 31.8488 28.663 32.8487 27.9346 33.8655V33.8655ZM32.6127 28.1183L32.2561 27.5517C33.087 26.6543 33.9509 25.7807 34.8237 24.9553L35.1519 25.5505C34.2888 26.3669 33.4345 27.2309 32.6127 28.1183V28.1183ZM37.811 23.2016L37.5126 22.5799C38.4244 21.8291 39.3663 21.1079 40.312 20.4361L40.5793 21.0815C39.644 21.7459 38.7126 22.4591 37.811 23.2016V23.2016ZM43.4453 19.2L43.2104 18.5331C44.1873 17.9427 45.1917 17.3865 46.1958 16.8796L46.3973 17.5648C45.4044 18.0659 44.4112 18.6161 43.4453 19.2V19.2ZM49.4229 16.1835L49.2557 15.4825C50.2832 15.0618 51.335 14.6796 52.382 14.3466L52.5142 15.0602C51.479 15.3895 50.4389 15.7674 49.4229 16.1835V16.1835ZM55.6545 14.2013L55.5577 13.4781C56.6172 13.2348 57.6978 13.0335 58.7694 12.8796L58.8304 13.6096C57.7707 13.7617 56.7022 13.9609 55.6545 14.2013V14.2013Z" fill="#E6E6E6"/>
<path d="M62.0507 13.2846L62.0255 12.551C62.587 12.518 63.1558 12.4968 63.7162 12.488L63.7229 13.2224C63.1686 13.231 62.606 13.2519 62.0507 13.2846Z" fill="#E6E6E6"/>
<path d="M16.5091 75.4193L16.1085 74.9049L14.1762 77.4937L12.3459 74.78L11.9257 75.2672L14.1554 78.5717L16.5091 75.4193Z" fill="#E6E6E6"/>
<path d="M61.921 15.9342L61.5283 15.4095L63.5047 12.8783L61.433 10.4808L61.805 9.93042L64.3277 12.8512L61.921 15.9342Z" fill="#E6E6E6"/>
<path d="M145.788 20.545C145.295 20.2048 144.798 19.8706 144.297 19.5422L144.548 18.8856C145.052 19.216 145.553 19.5525 146.05 19.8951L145.788 20.545Z" fill="#E6E6E6"/>
<path d="M183.882 156.072L183.363 155.794C183.785 154.446 184.19 153.071 184.569 151.706L185.096 151.957C184.715 153.331 184.306 154.715 183.882 156.072ZM186.18 147.78L185.646 147.558C185.982 146.171 186.3 144.757 186.592 143.355L187.133 143.548C186.839 144.96 186.518 146.384 186.18 147.78V147.78ZM187.953 139.268L187.406 139.104C187.654 137.685 187.883 136.241 188.086 134.813L188.637 134.947C188.433 136.385 188.203 137.839 187.953 139.268V139.268ZM189.185 130.593L188.63 130.489C188.788 129.049 188.925 127.585 189.037 126.138L189.595 126.213C189.482 127.669 189.344 129.143 189.185 130.593V130.593ZM189.867 121.814L189.307 121.77C189.374 120.319 189.418 118.845 189.439 117.39L190 117.404C189.979 118.869 189.934 120.353 189.867 121.814V121.814ZM189.995 112.991L189.434 113.007C189.424 112.368 189.408 111.73 189.389 111.093C189.364 110.275 189.331 109.446 189.292 108.627L189.851 108.581C189.891 109.405 189.924 110.24 189.949 111.063C189.969 111.705 189.984 112.348 189.995 112.991L189.995 112.991ZM189.013 104.262C188.897 102.815 188.758 101.352 188.597 99.9137L189.152 99.8075C189.313 101.256 189.454 102.729 189.57 104.185L189.013 104.262ZM188.047 95.591C187.842 94.1626 187.611 92.7192 187.362 91.3011L187.908 91.1361C188.159 92.564 188.391 94.0171 188.598 95.4555L188.047 95.591ZM186.544 87.0508C186.251 85.6468 185.932 84.2327 185.595 82.8473L186.13 82.6248C186.468 84.0196 186.79 85.4435 187.085 86.857L186.544 87.0508ZM184.516 78.6977C184.137 77.3302 183.731 75.9543 183.31 74.6084L183.828 74.3296C184.253 75.6849 184.661 77.0701 185.043 78.4469L184.516 78.6977ZM181.976 70.5864C181.513 69.2635 181.023 67.9353 180.519 66.6387L181.019 66.3056C181.526 67.6111 182.02 68.9482 182.486 70.2802L181.976 70.5864ZM178.94 62.7717C178.396 61.5031 177.825 60.2315 177.242 58.9925L177.719 58.6072C178.306 59.8546 178.881 61.1349 179.429 62.4124L178.94 62.7717ZM175.426 55.3072C174.805 54.1002 174.156 52.8939 173.497 51.722L173.949 51.2868C174.612 52.4667 175.265 53.6813 175.891 54.8967L175.426 55.3072ZM171.457 48.2431C170.761 47.1062 170.039 45.9738 169.309 44.8772L169.731 44.3947C170.466 45.4989 171.194 46.6391 171.894 47.7839L171.457 48.2431ZM167.056 41.6296C166.291 40.5714 165.5 39.5206 164.703 38.5061L165.094 37.9796C165.896 39.001 166.693 40.0592 167.463 41.1246L167.056 41.6296ZM162.253 35.512C161.424 34.5403 160.569 33.5783 159.71 32.6526L160.067 32.0856C160.931 33.0178 161.792 33.9865 162.627 34.9649L162.253 35.512ZM157.079 29.9329C156.195 29.057 155.283 28.1918 154.369 27.3613L154.688 26.7578C155.609 27.5941 156.527 28.4653 157.417 29.3471L157.079 29.9329ZM151.581 24.9377C150.645 24.1598 149.683 23.3952 148.719 22.6647L149 22.0292C149.97 22.7645 150.939 23.5345 151.881 24.3176L151.581 24.9377Z" fill="#E6E6E6"/>
<path d="M181.821 162.126L181.316 161.807C181.56 161.146 181.798 160.484 182.03 159.82L182.539 160.126C182.306 160.794 182.066 161.461 181.821 162.126Z" fill="#E6E6E6"/>
<path d="M144.999 23.0181L145.528 22.7739L144.607 19.3605L147.274 18.4059L147.125 17.6973L143.878 18.8604L144.999 23.0181Z" fill="#E6E6E6"/>
<path d="M180.251 158.493L180.784 158.263L181.646 161.703L184.203 160.326L184.416 161.006L181.302 162.683L180.251 158.493Z" fill="#E6E6E6"/>
</svg>
