<svg width="278" height="286" viewBox="0 0 278 286" fill="none" xmlns="http://www.w3.org/2000/svg">
<g clip-path="url(#clip0)">
<path d="M263.249 267.304C261.333 274.181 255.739 278.995 249.903 283.085C249.088 283.656 248.273 284.214 247.457 284.759C247.452 284.761 247.446 284.766 247.44 284.769C247.401 284.795 247.362 284.821 247.325 284.847C247.157 284.96 246.989 285.072 246.822 285.183L246.914 285.226C246.914 285.226 247.004 285.275 246.905 285.233C246.876 285.221 246.845 285.209 246.816 285.197C243.425 283.782 239.975 282.263 237.377 279.613C234.681 276.861 233.106 272.545 234.566 268.929C234.758 268.456 235 268.006 235.288 267.588C235.407 267.412 235.534 267.245 235.667 267.08C236.472 266.064 237.524 265.287 238.715 264.831C239.907 264.375 241.194 264.255 242.444 264.484C243.695 264.713 244.865 265.282 245.832 266.134C246.8 266.985 247.531 268.088 247.95 269.328C248.378 265.198 245.087 261.739 241.919 259.186C238.75 256.635 235.148 253.856 234.536 249.749C234.194 247.464 234.962 245.249 236.361 243.472C236.404 243.418 236.447 243.364 236.492 243.311C238.195 241.241 240.591 239.911 243.2 239.588C248.06 239.065 252.78 241.727 256.31 245.222C261.993 250.846 265.428 259.485 263.249 267.304Z" fill="#F2F2F2"/>
<path d="M254.115 258.309C255.048 259.811 255.764 261.444 256.241 263.16C256.644 264.692 256.824 266.279 256.773 267.867C256.643 271.134 255.757 274.321 254.188 277.16C253.007 279.314 251.567 281.305 249.903 283.085C249.088 283.656 248.273 284.214 247.457 284.759C247.452 284.761 247.446 284.766 247.441 284.769C247.401 284.795 247.362 284.821 247.326 284.847C247.157 284.96 246.989 285.072 246.822 285.183C246.822 285.183 247.004 285.275 246.905 285.233C246.876 285.221 246.845 285.209 246.816 285.197C247.12 282.619 246.822 280.004 245.948 277.57C245.074 275.136 243.648 272.955 241.791 271.208C239.93 269.488 237.701 268.248 235.288 267.588C235.407 267.413 235.534 267.245 235.667 267.08C236.599 267.351 237.506 267.706 238.377 268.141C241.493 269.689 244.044 272.233 245.652 275.398C247.096 278.271 247.717 281.511 247.444 284.737C247.583 284.606 247.722 284.473 247.858 284.341C250.434 281.856 252.722 279.003 254.271 275.711C255.614 272.924 256.275 269.837 256.194 266.723C256.067 263.328 254.76 260.183 252.866 257.445C250.791 254.524 248.34 251.91 245.58 249.676C242.799 247.372 239.756 245.428 236.519 243.889C236.446 243.853 236.389 243.79 236.359 243.713C236.33 243.635 236.331 243.549 236.361 243.472C236.383 243.402 236.43 243.345 236.492 243.311C236.524 243.297 236.559 243.29 236.594 243.292C236.629 243.293 236.663 243.303 236.694 243.32C237.094 243.51 237.491 243.703 237.884 243.905C241.164 245.582 244.23 247.674 247.01 250.133C249.697 252.502 252.226 255.209 254.115 258.309Z" fill="white"/>
<path d="M2.77235 254.205C5.87359 265.336 14.9289 273.127 24.3747 279.746C25.6935 280.67 27.0129 281.574 28.3326 282.455C28.3415 282.459 28.3507 282.468 28.3598 282.472C28.4233 282.514 28.4869 282.557 28.5461 282.599C28.8184 282.781 29.0909 282.963 29.361 283.142L29.2126 283.211C29.2126 283.211 29.0669 283.291 29.2263 283.224C29.2738 283.203 29.3235 283.185 29.3708 283.164C34.8583 280.875 40.4431 278.416 44.6484 274.127C49.0107 269.673 51.5601 262.686 49.1979 256.835C48.8874 256.068 48.4952 255.34 48.0286 254.664C47.837 254.38 47.6307 254.109 47.4158 253.842C46.1128 252.197 44.4098 250.94 42.4818 250.202C40.5538 249.463 38.4705 249.269 36.446 249.64C34.4215 250.01 32.529 250.932 30.963 252.31C29.397 253.688 28.2141 255.473 27.5358 257.481C26.8419 250.796 32.1697 245.197 37.2969 241.065C42.4264 236.936 48.255 232.439 49.2466 225.791C49.8004 222.092 48.5572 218.508 46.2926 215.631C46.2225 215.543 46.1525 215.456 46.0803 215.371C43.3236 212.02 39.4463 209.868 35.223 209.345C27.3575 208.499 19.7175 212.806 14.0034 218.464C4.80667 227.567 -0.753164 241.549 2.77235 254.205Z" fill="#F2F2F2"/>
<path d="M17.5565 239.646C16.047 242.076 14.888 244.721 14.1162 247.497C13.4635 249.978 13.173 252.546 13.2543 255.116C13.3957 260.398 14.9667 265.56 17.4385 270.157C19.3508 273.643 21.6813 276.865 24.3746 279.746C25.6935 280.671 27.0128 281.574 28.3326 282.456C28.3415 282.46 28.3507 282.468 28.3598 282.472C28.4233 282.515 28.4869 282.557 28.546 282.599C28.8184 282.781 29.0909 282.963 29.361 283.142C29.361 283.142 29.0669 283.292 29.2263 283.224C29.2738 283.204 29.3235 283.185 29.3708 283.165C28.879 278.993 29.3608 274.76 30.7759 270.821C32.1909 266.881 34.498 263.35 37.5037 260.524C40.5168 257.74 44.1231 255.732 48.0286 254.664C47.837 254.38 47.6306 254.109 47.4158 253.842C45.9074 254.28 44.4394 254.855 43.0288 255.56C37.9866 258.065 33.8579 262.183 31.254 267.305C28.9173 271.955 27.9117 277.199 28.3551 282.42C28.1296 282.209 27.9039 281.993 27.6849 281.779C23.5151 277.757 19.8115 273.14 17.3049 267.813C15.1304 263.3 14.0616 258.304 14.1928 253.264C14.3974 247.769 16.5138 242.679 19.5781 238.247C22.8606 233.505 26.9759 229.309 31.3705 225.674C35.8717 221.944 40.797 218.798 46.0368 216.306C46.155 216.249 46.2475 216.147 46.2951 216.021C46.3427 215.896 46.3418 215.756 46.2926 215.631C46.2577 215.519 46.1813 215.426 46.0803 215.371C46.0282 215.348 45.9718 215.337 45.9153 215.34C45.8587 215.342 45.8033 215.358 45.7534 215.386C45.1065 215.694 44.464 216.006 43.8267 216.332C38.5186 219.046 33.557 222.432 29.0559 226.412C24.7081 230.247 20.6149 234.629 17.5565 239.646Z" fill="white"/>
<path d="M212.674 67.8607H211.157V24.8775C211.157 21.6106 210.535 18.3756 209.327 15.3573C208.119 12.339 206.347 9.59656 204.114 7.28647C201.882 4.97638 199.231 3.14391 196.313 1.8937C193.396 0.643484 190.269 4.12228e-06 187.111 0H99.0894C92.7121 -1.45691e-05 86.5959 2.62099 82.0864 7.28641C77.5768 11.9518 75.0434 18.2795 75.0434 24.8774V260.687C75.0434 267.284 77.5768 273.612 82.0863 278.278C86.5958 282.943 92.712 285.564 99.0894 285.564H187.111C193.489 285.564 199.605 282.943 204.114 278.278C208.624 273.612 211.157 267.285 211.157 260.687V98.4569H212.674L212.674 67.8607Z" fill="#CCCCCC"/>
<path d="M206.039 25.0511V260.513C206.039 265.441 204.147 270.166 200.779 273.651C197.412 277.135 192.844 279.092 188.081 279.092H99.637C94.8743 279.092 90.3066 277.135 86.9388 273.651C83.571 270.166 81.679 265.441 81.6789 260.513V25.0511C81.679 20.1237 83.571 15.3981 86.9388 11.9138C90.3066 8.4296 94.8743 6.47214 99.637 6.47205H110.366C109.839 7.8124 109.638 9.26625 109.782 10.7057C109.925 12.1452 110.408 13.5262 111.188 14.7272C111.969 15.9282 113.022 16.9124 114.256 17.5933C115.491 18.2741 116.868 18.6308 118.266 18.6318H168.693C170.092 18.6308 171.469 18.2741 172.703 17.5932C173.937 16.9123 174.991 15.9281 175.771 14.7271C176.552 13.5261 177.035 12.1452 177.178 10.7057C177.321 9.26625 177.121 7.8124 176.593 6.47205H188.081C192.844 6.47214 197.412 8.4296 200.779 11.9138C204.147 15.3981 206.039 20.1237 206.039 25.0511V25.0511Z" fill="white"/>
<path d="M133.73 108.295C129.033 106.063 125.944 99.6789 126.12 93.3831C126.296 87.0874 129.499 81.1994 133.915 78.197C138.332 75.1947 143.785 74.9674 148.525 77.0549C153.265 79.1424 159.63 79.7111 162.479 84.8997C164.668 88.8869 163.88 97.7822 162.329 102.216C160.989 106.048 157.713 108.207 154.518 109.416C150.982 110.741 147.212 111.265 143.463 110.953C139.714 110.64 136.074 109.498 132.788 107.605L133.73 108.295Z" fill="#2F2E41"/>
<path d="M160.481 181.371L158.498 173.005L158.358 172.405C158.245 171.939 158.014 171.513 157.688 171.171C157.363 170.829 156.955 170.583 156.507 170.459L154.527 169.909L152.771 169.419L148.982 168.367H148.978L141.321 166.24L134.544 164.353L132.905 163.898L128.403 162.646L125.604 161.869L121.262 160.665L120.913 160.567C120.31 160.401 119.669 160.463 119.106 160.743C118.544 161.023 118.096 161.502 117.845 162.093C117.655 162.544 117.469 163.003 117.287 163.47C115.072 169.259 113.393 175.253 112.273 181.371C112.224 181.629 112.171 181.892 112.125 182.155H152.327C152.327 182.202 152.327 182.246 152.331 182.293C152.399 182.249 152.468 182.206 152.536 182.155H160.667L160.481 181.371Z" fill="#2F2E41"/>
<path d="M153.499 109.953C159.056 104.204 159.056 94.8838 153.499 89.1351C147.943 83.3864 138.934 83.3864 133.377 89.1351C127.821 94.8838 127.821 104.204 133.377 109.953C138.934 115.701 147.943 115.701 153.499 109.953Z" fill="#FFB8B8"/>
<path d="M158.615 176.808C157.134 178.516 155.472 180.046 153.662 181.371C153.294 181.642 152.918 181.905 152.535 182.156C152.467 182.207 152.399 182.25 152.33 182.293C152.327 182.246 152.327 182.203 152.327 182.156H119.733C119.667 182.1 119.605 182.04 119.547 181.975C119.342 181.787 119.141 181.579 118.948 181.371C117.671 180.02 116.593 178.482 115.747 176.808L119.729 165.158L121.261 160.665L123.488 154.16L125.884 147.14C125.676 146.491 125.506 145.829 125.376 145.159V145.155C123.104 133.234 134.285 121.667 134.285 121.667C134.372 121.596 134.46 121.53 134.547 121.467C135.624 120.643 136.795 119.958 138.032 119.426C143.274 117.178 148.762 118.085 152.456 119.246C153.739 119.645 154.994 120.138 156.21 120.721C156.643 120.933 156.878 121.067 156.878 121.067L157.246 132.587L157.746 148.337L158.016 157.122L158.353 168.207L158.497 173.006L158.615 176.808Z" fill="#84C7C7"/>
<path d="M174.632 181.37L171.052 162.556L170.551 159.927L172.971 148.721L171.837 142.76L167.608 120.532C167.504 119.997 167.246 119.507 166.869 119.125C166.491 118.744 166.011 118.489 165.491 118.394L160.318 117.472L155.513 116.612C155.05 116.527 154.573 116.573 154.134 116.748C153.695 116.922 153.31 117.217 153.021 117.601C152.658 118.067 152.459 118.647 152.456 119.245C152.457 119.615 152.531 119.981 152.672 120.32C156.181 128.784 154.868 144.165 153.602 159.036C153.564 159.472 153.526 159.907 153.492 160.343C153.226 163.435 152.976 166.48 152.771 169.419C152.703 170.396 152.642 171.365 152.585 172.318C152.399 175.497 152.293 178.538 152.316 181.37C152.316 181.633 152.32 181.896 152.327 182.155C152.327 182.202 152.327 182.245 152.331 182.293C152.399 182.249 152.468 182.206 152.536 182.155H174.78L174.632 181.37Z" fill="#2F2E41"/>
<path d="M138.033 119.426C137.928 118.989 137.72 118.586 137.427 118.253C137.134 117.921 136.765 117.669 136.354 117.522C135.943 117.374 135.503 117.335 135.073 117.407C134.644 117.48 134.239 117.663 133.895 117.939L132.579 119.175L122.593 128.58C122.31 128.844 122.088 129.17 121.941 129.534C121.012 131.837 119.278 136.173 117.23 141.572C116.506 143.487 115.74 145.539 114.955 147.677C113.646 151.244 118.023 156.706 116.711 160.575C116.483 161.253 116.242 161.92 115.986 162.576C113.328 169.501 109.55 175.352 108.245 181.371C108.189 181.634 108.132 181.896 108.079 182.155H122.525C122.544 182.097 122.563 182.038 122.582 181.975C122.639 181.775 122.699 181.575 122.76 181.371C123.826 177.773 125.017 173.821 126.272 169.67C126.446 169.097 126.621 168.52 126.795 167.94C127.322 166.201 127.858 164.437 128.403 162.646C128.479 162.387 128.559 162.128 128.638 161.869C128.821 161.265 129.004 160.661 129.188 160.057C129.431 159.264 129.674 158.469 129.917 157.671C130.546 155.599 131.18 153.516 131.813 151.444C134.381 143.012 133.819 134.901 135.753 128.427C135.784 128.333 135.81 128.243 135.837 128.152C136.667 125.367 137.399 122.895 137.991 120.835C138.126 120.377 138.14 119.891 138.033 119.426Z" fill="#2F2E41"/>
<path d="M153.554 81.2216C154.067 81.299 154.589 81.1994 155.041 80.9383C155.493 80.6773 155.85 80.2693 156.055 79.7776C156.245 79.2794 156.322 78.7428 156.28 78.2091C156.238 77.6753 156.079 77.1585 155.814 76.6984C155.275 75.7814 154.524 75.0184 153.627 74.4788C152.594 73.7648 151.4 73.3399 150.162 73.2454C149.544 73.2035 148.924 73.2995 148.345 73.5269C147.766 73.7543 147.241 74.1078 146.805 74.5635C146.38 75.0305 146.1 75.618 146 76.2509C145.899 76.8838 145.984 77.5332 146.242 78.1161C146.763 79.1541 147.854 79.7362 148.918 80.1314C151.028 80.9134 153.276 81.2188 155.509 81.027L153.554 81.2216Z" fill="#2F2E41"/>
<path d="M158.614 97.0947C156.397 97.7627 156.518 96.5266 155.302 94.4954C154.087 92.4643 152.507 90.074 150.201 90.2012C148.311 90.3054 146.995 92.0814 145.648 93.4565C143.247 95.9076 139.762 97.4596 136.468 96.7114C133.174 95.9632 130.457 92.447 131.181 89.0388C131.587 87.1297 132.952 85.5417 134.588 84.5637C136.223 83.5856 138.113 83.1548 139.989 82.9299C144.171 82.4328 148.407 82.8911 152.398 84.2727C155.153 85.2291 157.923 86.776 159.294 89.4268C160.665 92.0776 161.866 95.9134 159.194 97.0947H158.614Z" fill="#2F2E41"/>
<path d="M195.059 99.4186V112.92C194.805 112.987 194.555 113.05 194.3 113.105C192.472 113.525 190.61 113.803 188.759 114.035C185.888 114.396 182.942 114.662 180.143 113.921C176.229 112.885 172.952 109.895 170.964 106.25C168.981 102.609 168.2 98.3631 168.169 94.1803C168.146 90.9236 168.556 87.6629 168.34 84.414C168.12 81.1652 167.176 77.8025 164.9 75.5541C162.624 73.3019 158.779 72.5642 156.283 74.5457C155.86 74.9 155.461 75.2842 155.088 75.6954C154.606 76.2532 154.039 76.7251 153.408 77.0923C152.278 77.6808 150.492 77.2218 150.416 75.9151L151.599 73.6276C151.561 73.5766 151.52 73.5216 151.482 73.4706C149.748 70.9986 150.473 67.2357 152.616 65.113C154.804 62.9392 158.062 62.2643 161.081 62.539C164.075 62.8506 166.937 63.9713 169.38 65.7888C171.823 67.6063 173.761 70.0566 175 72.8938C176.911 77.4101 176.892 82.5777 178.622 87.1764C179.554 89.6198 180.953 91.8431 182.736 93.7129C184.519 95.5826 186.649 97.0603 188.998 98.057C190.694 98.761 192.48 99.2013 194.3 99.3636C194.555 99.3872 194.805 99.4029 195.059 99.4186Z" fill="#2F2E41"/>
<path d="M149.141 157.532H148.98V152.973C148.98 152.273 148.711 151.602 148.233 151.107C147.755 150.613 147.106 150.335 146.43 150.335H137.094C136.759 150.335 136.428 150.403 136.118 150.536C135.809 150.668 135.528 150.862 135.291 151.107C135.054 151.352 134.866 151.643 134.738 151.963C134.61 152.284 134.544 152.627 134.544 152.973V177.982C134.544 178.682 134.813 179.353 135.291 179.848C135.769 180.343 136.418 180.621 137.094 180.621H146.43C146.765 180.621 147.096 180.552 147.406 180.42C147.715 180.287 147.996 180.093 148.233 179.848C148.47 179.603 148.658 179.312 148.786 178.992C148.914 178.672 148.98 178.329 148.98 177.982V160.777H149.141V157.532Z" fill="#3F3D56"/>
<path d="M141.842 162.911C143.442 162.911 144.739 161.569 144.739 159.914C144.739 158.259 143.442 156.917 141.842 156.917C140.243 156.917 138.946 158.259 138.946 159.914C138.946 161.569 140.243 162.911 141.842 162.911Z" fill="white"/>
<path d="M140.604 167.9C140.536 167.814 140.46 167.731 140.384 167.649C139.759 166.985 139.005 166.465 138.173 166.122C137.341 165.778 136.448 165.62 135.553 165.656C135.268 165.671 134.984 165.705 134.703 165.758L134.544 165.593L132.905 163.898L129.188 160.057L126.883 157.671L123.488 154.159L120.94 151.526L119.95 150.502L121.698 143.42L117.23 141.572L111.409 139.166L111.318 139.127L111.101 139.739L109.546 144.201L108.386 147.516C107.71 149.475 107.595 151.594 108.055 153.618C108.514 155.643 109.529 157.487 110.976 158.93C111.306 159.259 111.657 159.564 112.027 159.845L115.986 162.576L117.287 163.47L119.73 165.157L123.761 167.939L126.272 169.67L129.458 171.867C129.443 172.083 129.439 172.299 129.446 172.515C129.484 173.441 129.709 174.349 130.108 175.179C130.508 176.01 131.072 176.743 131.764 177.333C132.592 178.047 133.585 178.527 134.646 178.726H134.65C135.979 178.979 137.351 178.793 138.571 178.192C139.376 177.79 140.091 177.217 140.669 176.512C141.247 175.806 141.676 174.983 141.928 174.096C142.059 173.649 142.14 173.188 142.171 172.722C142.234 171.851 142.129 170.975 141.859 170.147C141.59 169.319 141.164 168.555 140.604 167.9Z" fill="#FFB8B8"/>
<path d="M178.019 150.565L177.435 146.94L176.6 141.772L171.837 142.761L165.643 144.048L166.125 151.342L165.768 151.597L158.016 157.122L153.492 160.343L148.982 163.557L148.979 163.561L148.944 163.584C148.679 163.477 148.407 163.391 148.129 163.325C147.255 163.12 146.349 163.108 145.47 163.289C144.591 163.471 143.759 163.841 143.028 164.377C142.345 164.875 141.765 165.509 141.321 166.241C141.007 166.756 140.766 167.315 140.604 167.901C140.5 168.271 140.426 168.651 140.384 169.034C140.288 169.943 140.375 170.862 140.641 171.734C140.907 172.605 141.345 173.41 141.928 174.096C142.648 174.954 143.572 175.602 144.609 175.976C146.026 176.495 147.575 176.474 148.978 175.917H148.982C149.269 175.806 149.546 175.672 149.813 175.517C151.056 174.801 152.032 173.675 152.585 172.319C152.734 171.962 152.851 171.591 152.934 171.212C152.979 171.001 153.013 170.787 153.037 170.573L154.527 169.909L158.354 168.207L171.052 162.556L172.28 162.011C173.329 161.488 174.283 160.783 175.102 159.927C176.27 158.717 177.143 157.237 177.65 155.61C178.158 153.982 178.284 152.253 178.019 150.565V150.565Z" fill="#FFB8B8"/>
<path d="M135.424 123.636C135.233 122.873 134.938 122.143 134.547 121.466C134.038 120.58 133.37 119.802 132.579 119.175C132.246 118.911 131.893 118.673 131.525 118.464C129.663 117.408 127.471 117.16 125.433 117.774C123.394 118.389 121.674 119.815 120.651 121.741L111.409 139.166L111.101 139.739L108.943 143.812L109.546 144.201L114.955 147.677L120.94 151.526L121.36 151.797L125.377 145.158V145.154L134.464 130.122C134.814 129.546 135.094 128.928 135.298 128.282C135.325 128.192 135.351 128.097 135.378 128.007C135.774 126.581 135.79 125.071 135.424 123.636V123.636Z" fill="#2F2E41"/>
<path d="M170.354 122.365C169.614 120.368 168.157 118.744 166.287 117.832C164.416 116.92 162.278 116.791 160.318 117.472C160.072 117.558 159.829 117.656 159.59 117.766C158.217 118.401 157.045 119.425 156.211 120.721C155.874 121.239 155.597 121.796 155.384 122.38C155.008 123.397 154.831 124.481 154.862 125.57C154.894 126.658 155.133 127.729 155.566 128.721L157.246 132.586L165.541 151.687L165.768 151.597L172.971 148.721L177.435 146.939L179.179 146.245L170.354 122.365Z" fill="#2F2E41"/>
<path d="M130.743 220.217H103.436C101.575 220.217 99.7905 219.452 98.4747 218.091C97.1588 216.729 96.4196 214.883 96.4196 212.958C96.4196 211.033 97.1588 209.186 98.4747 207.825C99.7905 206.464 101.575 205.699 103.436 205.699H130.743C132.604 205.699 134.388 206.464 135.704 207.825C137.02 209.186 137.759 211.033 137.759 212.958C137.759 214.883 137.02 216.729 135.704 218.091C134.388 219.452 132.604 220.217 130.743 220.217V220.217Z" fill="#84C7C7"/>
<path d="M185.008 220.217H157.701C155.84 220.217 154.055 219.452 152.739 218.091C151.424 216.729 150.684 214.883 150.684 212.958C150.684 211.033 151.424 209.186 152.739 207.825C154.055 206.464 155.84 205.699 157.701 205.699H185.008C186.869 205.699 188.653 206.464 189.969 207.825C191.285 209.186 192.024 211.033 192.024 212.958C192.024 214.883 191.285 216.729 189.969 218.091C188.653 219.452 186.869 220.217 185.008 220.217V220.217Z" fill="#E6E6E6"/>
<path d="M277.621 286H0.379263C0.278676 286 0.182209 285.959 0.111083 285.885C0.0399577 285.812 0 285.712 0 285.608C0 285.504 0.0399577 285.404 0.111083 285.33C0.182209 285.257 0.278676 285.215 0.379263 285.215H277.621C277.721 285.215 277.818 285.257 277.889 285.33C277.96 285.404 278 285.504 278 285.608C278 285.712 277.96 285.812 277.889 285.885C277.818 285.959 277.721 286 277.621 286Z" fill="#3F3D56"/>
<path d="M188.611 57.7716H99.1053C97.3961 57.7741 95.7576 58.4777 94.5489 59.7281C93.3403 60.9785 92.6603 62.6737 92.6578 64.442V175.485C92.6603 177.253 93.3403 178.949 94.5489 180.199C95.7576 181.449 97.3961 182.153 99.1053 182.155H188.611C190.321 182.154 191.96 181.45 193.169 180.2C194.377 178.949 195.057 177.254 195.059 175.485V64.442C195.057 62.6735 194.377 60.9779 193.169 59.7274C191.96 58.4768 190.321 57.7735 188.611 57.7716ZM194.3 175.485C194.299 177.045 193.699 178.541 192.632 179.645C191.566 180.748 190.12 181.369 188.611 181.371H99.1053C97.5971 181.369 96.1511 180.748 95.0846 179.645C94.0182 178.541 93.4182 177.045 93.4164 175.485V64.442C93.4182 62.8816 94.0182 61.3857 95.0846 60.2823C96.1511 59.179 97.5971 58.5583 99.1053 58.5564H188.611C190.12 58.5583 191.566 59.179 192.632 60.2823C193.699 61.3857 194.299 62.8816 194.3 64.442V175.485Z" fill="#3F3D56"/>
<path d="M117.074 87.6048C116.752 87.6038 116.433 87.5367 116.137 87.4073C115.84 87.278 115.572 87.089 115.346 86.8513L103.817 71.2849C103.55 70.9273 103.208 70.6374 102.817 70.4375C102.426 70.2377 101.995 70.1331 101.559 70.1317H34.7892C31.4195 70.1317 28.1879 68.7468 25.8052 66.2817C23.4224 63.8166 22.0839 60.4732 22.0839 56.987C22.0839 53.5009 23.4225 50.1575 25.8052 47.6924C28.1879 45.2273 31.4195 43.8424 34.7892 43.8424H118.227C121.301 43.8425 124.27 44.9953 126.585 47.0872C128.9 49.1791 130.404 52.0683 130.817 55.2193C131.23 58.3704 130.526 61.5697 128.833 64.2243C127.141 66.8789 124.576 68.8089 121.614 69.6566C121.02 69.8308 120.497 70.2013 120.125 70.7116C119.753 71.2219 119.553 71.8439 119.555 72.4829V85.0479C119.56 85.5535 119.417 86.0489 119.146 86.4694C118.874 86.8898 118.486 87.2157 118.033 87.4042C117.729 87.5357 117.403 87.6039 117.074 87.6048V87.6048Z" fill="#84C7C7"/>
<path d="M38.7229 62.6264C41.7333 62.6264 44.1736 60.1016 44.1736 56.9872C44.1736 53.8728 41.7333 51.348 38.7229 51.348C35.7126 51.348 33.2722 53.8728 33.2722 56.9872C33.2722 60.1016 35.7126 62.6264 38.7229 62.6264Z" fill="white"/>
<path d="M55.6488 62.6264C58.6591 62.6264 61.0994 60.1016 61.0994 56.9872C61.0994 53.8728 58.6591 51.348 55.6488 51.348C52.6384 51.348 50.1981 53.8728 50.1981 56.9872C50.1981 60.1016 52.6384 62.6264 55.6488 62.6264Z" fill="white"/>
<path d="M72.5747 62.6264C75.585 62.6264 78.0254 60.1016 78.0254 56.9872C78.0254 53.8728 75.585 51.348 72.5747 51.348C69.5643 51.348 67.124 53.8728 67.124 56.9872C67.124 60.1016 69.5643 62.6264 72.5747 62.6264Z" fill="white"/>
</g>
<defs>
<clipPath id="clip0">
<rect width="278" height="286" fill="white"/>
</clipPath>
</defs>
</svg>
