<svg width="494" height="176" viewBox="0 0 494 176" fill="none" xmlns="http://www.w3.org/2000/svg">
<g filter="url(#filter0_d)">
<path d="M87.8203 124.367C87.1172 125.727 86.2266 127.039 85.1484 128.305C84.1172 129.57 82.9219 130.695 81.5625 131.68C80.25 132.617 78.8438 133.391 77.3438 134C75.8438 134.562 74.2969 134.844 72.7031 134.844C70.125 134.844 67.8516 134.352 65.8828 133.367C63.9141 132.383 62.2734 131.07 60.9609 129.43C59.6484 127.742 58.6641 125.82 58.0078 123.664C57.3516 121.508 57.0234 119.234 57.0234 116.844V108.547C56.0859 112.016 54.8438 115.367 53.2969 118.602C51.75 121.789 49.8281 124.648 47.5312 127.18C45.2344 129.664 42.5391 131.656 39.4453 133.156C36.3984 134.656 32.9062 135.406 28.9688 135.406C25.9688 135.406 23.3906 134.867 21.2344 133.789C19.0781 132.664 17.2969 131.164 15.8906 129.289C14.4844 127.414 13.4531 125.258 12.7969 122.82C12.1406 120.336 11.8125 117.734 11.8125 115.016V37.3906L26.3672 32.1875V109.812C26.3672 111.5 26.3906 113.375 26.4375 115.438C26.4844 117.5 26.7656 119.422 27.2812 121.203C27.7969 122.984 28.6875 124.484 29.9531 125.703C31.2188 126.922 33.0469 127.531 35.4375 127.531C38.1094 127.531 40.4766 126.734 42.5391 125.141C44.6484 123.5 46.5 121.391 48.0938 118.812C49.7344 116.188 51.1172 113.234 52.2422 109.953C53.3672 106.672 54.2812 103.414 54.9844 100.18C55.6875 96.8984 56.2031 93.7812 56.5312 90.8281C56.8594 87.8281 57.0234 85.3203 57.0234 83.3047V37.3906L71.5781 32.1875V119.164C71.5781 120.102 71.6719 121.039 71.8594 121.977C72.0469 122.914 72.375 123.758 72.8438 124.508C73.3125 125.211 73.9219 125.797 74.6719 126.266C75.4219 126.734 76.3594 126.969 77.4844 126.969C79.0781 126.969 80.5781 126.5 81.9844 125.562C83.4375 124.625 84.6328 123.547 85.5703 122.328L87.8203 124.367ZM174.656 61.0156C174.656 65.0469 173.883 68.9141 172.336 72.6172C170.836 76.3203 168.773 79.7891 166.148 83.0234C163.57 86.2578 160.57 89.1875 157.148 91.8125C153.727 94.4375 150.094 96.6875 146.25 98.5625C142.406 100.438 138.492 101.891 134.508 102.922C130.523 103.953 126.68 104.469 122.977 104.469C122.602 104.469 122.203 104.469 121.781 104.469C121.406 104.469 121.031 104.422 120.656 104.328L121.43 100.461C124.477 99.9453 127.547 99.1719 130.641 98.1406C133.781 97.0625 136.781 95.75 139.641 94.2031C142.5 92.6094 145.172 90.7812 147.656 88.7188C150.141 86.6094 152.297 84.2891 154.125 81.7578C155.953 79.1797 157.383 76.3906 158.414 73.3906C159.492 70.3438 160.031 67.0859 160.031 63.6172C160.031 60.2891 159.492 57.2188 158.414 54.4062C157.336 51.5938 155.812 49.1562 153.844 47.0938C151.922 45.0313 149.602 43.4375 146.883 42.3125C144.164 41.1406 141.141 40.5547 137.812 40.5547C134.344 40.5547 130.781 40.9531 127.125 41.75C123.516 42.5469 119.93 43.6719 116.367 45.125C112.805 46.5781 109.359 48.3594 106.031 50.4688C102.75 52.5312 99.7266 54.8281 96.9609 57.3594L94.7812 54.9688C97.9688 51.7813 101.602 48.8047 105.68 46.0391C109.805 43.2266 114.117 40.7891 118.617 38.7266C123.117 36.6172 127.664 34.9531 132.258 33.7344C136.898 32.5156 141.352 31.9062 145.617 31.9062C149.695 31.9062 153.492 32.6328 157.008 34.0859C160.57 35.4922 163.641 37.4844 166.219 40.0625C168.844 42.6406 170.906 45.7109 172.406 49.2734C173.906 52.8359 174.656 56.75 174.656 61.0156ZM117.492 130.836L103.008 136.18V57.3594L117.492 52.2266V130.836Z" fill="#9ACD32"/>
</g>
<path d="M249.883 93.3672C249.883 94.8203 249.695 96.4375 249.32 98.2188C248.992 99.9531 248.5 101.5 247.844 102.859L231.461 138.016C231.18 138.531 230.781 138.859 230.266 139C229.797 139.188 229.281 139.281 228.719 139.281C228.062 139.281 227.43 139.164 226.82 138.93C226.211 138.695 225.789 138.25 225.555 137.594L214.586 98.8516L204.812 137.102C204.438 137.898 203.898 138.508 203.195 138.93C202.539 139.352 201.789 139.562 200.945 139.562C200.336 139.562 199.75 139.445 199.188 139.211C198.672 138.977 198.344 138.531 198.203 137.875L185.828 98.3594C185.641 97.7969 185.383 97.2109 185.055 96.6016C184.773 95.9453 184.398 95.3594 183.93 94.8438C183.508 94.2812 183.016 93.8359 182.453 93.5078C181.938 93.1328 181.328 92.9453 180.625 92.9453C179.688 92.9453 178.82 93.2031 178.023 93.7188C177.273 94.2344 176.594 94.7734 175.984 95.3359L174.578 93.5078C175.281 92.1953 176.172 90.9766 177.25 89.8516C178.328 88.6797 179.523 87.6484 180.836 86.7578C182.148 85.8672 183.531 85.1641 184.984 84.6484C186.484 84.1328 188.008 83.875 189.555 83.875C190.867 83.875 191.969 84.25 192.859 85C193.75 85.75 194.5 86.6641 195.109 87.7422C195.719 88.8203 196.211 89.9688 196.586 91.1875C197.008 92.4062 197.359 93.5078 197.641 94.4922C199.047 98.8984 200.43 103.328 201.789 107.781C203.195 112.234 204.578 116.641 205.938 121L212.898 92.8047L211.141 87.1797L222.953 83.2422L234.484 124.164L241.094 109.047C241.375 108.344 241.609 107.453 241.797 106.375C241.984 105.25 242.078 104.312 242.078 103.562C242.078 100.75 241.352 98.3359 239.898 96.3203C238.492 94.3047 236.594 92.6875 234.203 91.4688L242.219 80.3594C244.844 81.6719 246.766 83.4531 247.984 85.7031C249.25 87.9062 249.883 90.4609 249.883 93.3672ZM282.016 140.617C278.547 140.617 275.289 140.008 272.242 138.789C269.242 137.523 266.617 135.789 264.367 133.586C262.164 131.383 260.406 128.805 259.094 125.852C257.828 122.852 257.195 119.594 257.195 116.078C257.195 112.094 257.852 108.367 259.164 104.898C260.477 101.383 262.281 98.2188 264.578 95.4062C266.922 92.5938 269.664 90.1562 272.805 88.0938C275.992 86.0312 279.438 84.4141 283.141 83.2422L285.18 85.7031C283.07 87.25 281.102 89.0312 279.273 91.0469C277.445 93.0156 275.852 95.1719 274.492 97.5156C273.133 99.8125 272.055 102.25 271.258 104.828C270.461 107.359 270.062 109.961 270.062 112.633C270.062 114.883 270.391 117.25 271.047 119.734C271.703 122.219 272.688 124.492 274 126.555C275.312 128.617 276.953 130.328 278.922 131.688C280.938 133 283.258 133.656 285.883 133.656C288.227 133.656 290.242 133.234 291.93 132.391C293.664 131.547 295.094 130.398 296.219 128.945C297.344 127.492 298.188 125.805 298.75 123.883C299.312 121.914 299.594 119.852 299.594 117.695C299.594 115.164 299.102 112.586 298.117 109.961C297.133 107.289 295.773 104.828 294.039 102.578C292.352 100.328 290.359 98.4531 288.062 96.9531C285.766 95.4531 283.305 94.5859 280.68 94.3516C282.32 92.4766 284.125 90.7422 286.094 89.1484C288.062 87.5547 290.055 86.0312 292.07 84.5781C294.789 85.4688 297.18 86.7812 299.242 88.5156C301.352 90.25 303.109 92.2422 304.516 94.4922C305.969 96.7422 307.07 99.2031 307.82 101.875C308.57 104.5 308.945 107.172 308.945 109.891C308.945 113.594 308.289 117.273 306.977 120.93C305.711 124.586 303.883 127.891 301.492 130.844C299.148 133.75 296.312 136.117 292.984 137.945C289.703 139.727 286.047 140.617 282.016 140.617ZM359.008 131.336C358.164 132.648 357.133 133.844 355.914 134.922C354.695 135.953 353.359 136.844 351.906 137.594C350.453 138.344 348.93 138.93 347.336 139.352C345.742 139.773 344.172 139.984 342.625 139.984C340.562 139.984 338.781 139.609 337.281 138.859C335.828 138.062 334.633 137.031 333.695 135.766C332.758 134.5 332.055 133.023 331.586 131.336C331.164 129.648 330.953 127.891 330.953 126.062C330.953 123.672 331.305 121.117 332.008 118.398C332.758 115.633 333.742 112.914 334.961 110.242C336.227 107.57 337.656 105.086 339.25 102.789C340.844 100.492 342.531 98.5938 344.312 97.0938C342.672 98.1719 340.867 99.0156 338.898 99.625C336.977 100.234 335.008 100.539 332.992 100.539C331.539 100.539 330.273 100.422 329.195 100.188C328.117 99.9531 326.922 99.5078 325.609 98.8516L318.297 114.109L315.273 112.914L322.867 97.375C322.07 96.8125 321.203 96.1094 320.266 95.2656C319.375 94.375 318.719 93.5078 318.297 92.6641L328.07 81.6953C328.492 82.9609 329.078 84.25 329.828 85.5625C330.578 86.8281 331.445 87.9766 332.43 89.0078C333.461 89.9922 334.586 90.8125 335.805 91.4688C337.07 92.125 338.43 92.4531 339.883 92.4531C342.367 92.4531 344.781 92.0078 347.125 91.1172C349.469 90.1797 351.648 89.0547 353.664 87.7422L355.562 89.6406C353.781 91.2812 351.977 93.1094 350.148 95.125C348.367 97.0938 346.75 99.2031 345.297 101.453C343.844 103.703 342.672 106.07 341.781 108.555C340.891 111.039 340.445 113.547 340.445 116.078C340.445 117.531 340.633 119.172 341.008 121C341.43 122.781 342.062 124.492 342.906 126.133C343.75 127.727 344.805 129.086 346.07 130.211C347.336 131.289 348.859 131.828 350.641 131.828C351.859 131.828 353.031 131.617 354.156 131.195C355.328 130.727 356.383 130.164 357.32 129.508L359.008 131.336ZM420.953 131.195C420.25 132.414 419.383 133.586 418.352 134.711C417.32 135.789 416.172 136.727 414.906 137.523C413.688 138.32 412.375 138.953 410.969 139.422C409.562 139.891 408.133 140.125 406.68 140.125C404.852 140.125 402.953 139.445 400.984 138.086C399.016 136.727 397.094 135.109 395.219 133.234C393.344 131.312 391.562 129.367 389.875 127.398C388.188 125.383 386.688 123.719 385.375 122.406L384.25 123.039C384.016 123.883 383.805 124.938 383.617 126.203C383.43 127.469 383.266 128.781 383.125 130.141C382.984 131.5 382.867 132.836 382.773 134.148C382.727 135.414 382.68 136.492 382.633 137.383L369.695 141.883V42.6719L382.633 38.1719V116.219C383.148 114.484 383.781 112.492 384.531 110.242C385.281 107.945 386.148 105.602 387.133 103.211C388.164 100.773 389.336 98.3828 390.648 96.0391C391.961 93.6953 393.414 91.6094 395.008 89.7812C396.602 87.9062 398.359 86.4062 400.281 85.2812C402.203 84.1562 404.289 83.5938 406.539 83.5938C407.898 83.5938 409.117 83.8516 410.195 84.3672C411.32 84.8359 412.258 85.4922 413.008 86.3359C413.805 87.1797 414.414 88.1641 414.836 89.2891C415.258 90.4141 415.469 91.6328 415.469 92.9453C415.469 95.6172 414.812 98.1719 413.5 100.609C412.188 103.047 410.523 105.32 408.508 107.43C406.539 109.539 404.383 111.438 402.039 113.125C399.742 114.812 397.586 116.242 395.57 117.414C396.227 117.977 396.977 118.75 397.82 119.734C398.664 120.672 399.531 121.68 400.422 122.758C401.359 123.836 402.32 124.938 403.305 126.062C404.336 127.188 405.344 128.195 406.328 129.086C407.312 129.977 408.297 130.703 409.281 131.266C410.312 131.828 411.273 132.109 412.164 132.109C413.523 132.109 414.766 131.805 415.891 131.195C417.016 130.586 417.977 129.789 418.773 128.805L420.953 131.195ZM402.109 98.0781C402.109 97.2812 401.758 96.5312 401.055 95.8281C400.352 95.125 399.625 94.7734 398.875 94.7734C397.938 94.7734 396.977 95.2422 395.992 96.1797C395.055 97.1172 394.141 98.3125 393.25 99.7656C392.359 101.219 391.492 102.836 390.648 104.617C389.852 106.398 389.125 108.133 388.469 109.82C387.812 111.508 387.227 113.078 386.711 114.531C386.242 115.938 385.891 116.992 385.656 117.695C386.312 117.227 387.156 116.523 388.188 115.586C389.266 114.648 390.414 113.594 391.633 112.422C392.852 111.203 394.07 109.938 395.289 108.625C396.555 107.266 397.68 105.953 398.664 104.688C399.695 103.375 400.516 102.156 401.125 101.031C401.781 99.8594 402.109 98.875 402.109 98.0781Z" fill="#F2F2F2"/>
<path d="M431 5L438.184 29.1844L461.434 29.1844L442.625 44.1312L449.809 68.3156L431 53.3688L412.191 68.3156L419.375 44.1312L400.566 29.1844L423.816 29.1844L431 5Z" fill="#9ACD32"/>
<defs>
<filter id="filter0_d" x="11.8125" y="31.9062" width="170.844" height="112.273" filterUnits="userSpaceOnUse" color-interpolation-filters="sRGB">
<feFlood flood-opacity="0" result="BackgroundImageFix"/>
<feColorMatrix in="SourceAlpha" type="matrix" values="0 0 0 0 0 0 0 0 0 0 0 0 0 0 0 0 0 0 127 0"/>
<feOffset dx="4" dy="4"/>
<feGaussianBlur stdDeviation="2"/>
<feColorMatrix type="matrix" values="0 0 0 0 0 0 0 0 0 0 0 0 0 0 0 0 0 0 0.25 0"/>
<feBlend mode="normal" in2="BackgroundImageFix" result="effect1_dropShadow"/>
<feBlend mode="normal" in="SourceGraphic" in2="effect1_dropShadow" result="shape"/>
</filter>
</defs>
</svg>
